<?xml version="1.0" standalone="no"?><svg xmlns="http://www.w3.org/2000/svg" viewBox="0 0 1440 320"><path fill="#0099ff" fill-opacity="0.5" d="M0,288L12,256C24,224,48,160,72,138.7C96,117,120,139,144,165.3C168,192,192,224,216,229.3C240,235,264,213,288,208C312,203,336,213,360,208C384,203,408,181,432,160C456,139,480,117,504,96C528,75,552,53,576,53.3C600,53,624,75,648,69.3C672,64,696,32,720,32C744,32,768,64,792,85.3C816,107,840,117,864,128C888,139,912,149,936,149.3C960,149,984,139,1008,144C1032,149,1056,171,1080,202.7C1104,235,1128,277,1152,277.3C1176,277,1200,235,1224,192C1248,149,1272,107,1296,117.3C1320,128,1344,192,1368,181.3C1392,171,1416,85,1428,42.7L1440,0L1440,0L1428,0C1416,0,1392,0,1368,0C1344,0,1320,0,1296,0C1272,0,1248,0,1224,0C1200,0,1176,0,1152,0C1128,0,1104,0,1080,0C1056,0,1032,0,1008,0C984,0,960,0,936,0C912,0,888,0,864,0C840,0,816,0,792,0C768,0,744,0,720,0C696,0,672,0,648,0C624,0,600,0,576,0C552,0,528,0,504,0C480,0,456,0,432,0C408,0,384,0,360,0C336,0,312,0,288,0C264,0,240,0,216,0C192,0,168,0,144,0C120,0,96,0,72,0C48,0,24,0,12,0L0,0Z"></path></svg>